<svg version="1.1" viewBox="0 0 374.6 145.6" xmlns="http://www.w3.org/2000/svg">
 <g transform="translate(-114.4,-195.5)">
  <g fill="#1b3358">
   <path d="m123.2 214c0-2.1-1.1-3.1-3.1-3.1h-5.7v-15.4h17.2c6.7 0 9.7 3 9.7 9.7v73.1c0 2 1.1 3.1 3.1 3.1h11.3v15.2h-22.8c-6.8 0-9.7-2.8-9.7-9.7z"/>
   <path d="m181.8 222.3c20.8 0 32.2 15.2 32.2 34.5 0 2.1-0.4 6.7-0.4 6.7h-50.1c1.4 12.8 10.8 19.5 21.8 19.5 11.7 0 20.4-8.1 20.4-8.1l7.5 12.5s-11.1 11-29.2 11c-24.1 0-39-17.4-39-38-0.1-22.5 15-38.1 36.8-38.1zm13.7 28.6c-0.3-8.7-6.3-14.7-13.7-14.7-9.3 0-15.8 5.6-17.8 14.7z"/>
   <path d="m245.1 222.3c16.8 0 22.4 10.3 22.4 10.3h0.3v-1.9c0-3.3 2.3-6.7 8-6.7h16.8v15.4h-5.6c-1.9 0-3.1 1-3.1 2.8v50c0 24.9-19.4 34.3-38.3 34.3-9.1 0-18.8-2.6-25.8-6.3l5.6-14.2s9 4.8 20.1 4.8c11 0 20.5-4.7 20.5-17.8v-3.4c0-1.7 0.1-3.8 0.1-3.8h-0.3c-4.3 6.1-10.5 9.4-20.2 9.4-20.8 0-32.6-16.8-32.6-36.7s11.1-36.2 32.1-36.2zm21.2 36.3c0-16.5-8.3-20.9-18.1-20.9-11 0-16.9 8-16.9 20.2 0 12.7 6.4 22.1 18.1 22.1 8.6 0 16.9-5 16.9-21.4z"/>
   <path d="m329.1 251h2.3v-0.6c0-10.4-4.1-14.2-13.4-14.2-3.3 0-9.7 0.9-9.7 4.8v3.8h-16.8v-7.7c0-13.5 19.1-15 26.6-15 24.2 0 31.3 12.7 31.3 28.9v27.1c0 2 1.1 3.1 3.1 3.1h5.7v15.2h-16.2c-6.7 0-9.3-3.7-9.3-8 0-1.9 0.1-3.1 0.1-3.1h-0.3s-5.6 12.8-21.9 12.8c-13 0-24.8-8.1-24.8-22.6 0.1-22.6 31.5-24.5 43.3-24.5zm-14 33.2c9.7 0 16.5-10.3 16.5-19.1v-1.7h-3.1c-9.4 0-24.4 1.3-24.4 11.4 0.1 4.9 3.6 9.4 11 9.4z"/>
   <path d="m358.8 238.4h-16.5v-14.4h16.9v-19.8h17.7v19.8h16.5v14.4h-16.5v29.3c0 12 9.4 13.7 14.4 13.7 2 0 3.3-0.3 3.3-0.3v15.8s-2.3 0.4-5.6 0.4c-10.1 0-30.2-3-30.2-27.3z"/>
   <path d="m424.1 222.3c22.2 0 39.9 15.8 39.9 38 0 22.4-17.7 38-39.9 38-22.1 0-39.7-15.7-39.7-38-0.1-22.2 17.6-38 39.7-38zm0 60.6c11.8 0 21.6-9.1 21.6-22.6 0-13.4-9.8-22.6-21.6-22.6-11.7 0-21.5 9.3-21.5 22.6 0 13.5 9.8 22.6 21.5 22.6z"/>
  </g>
  <g fill="#ee7402">
   <path d="m289.5 323.7c-0.1-0.5-0.5-0.6-1-0.6h-0.4v-2.5h1.6c1.4 0 2.1 0.3 2.5 1.7l3.1 12.9c0.3 1.1 0.4 2.1 0.4 2.1h0.1s0.2-1 0.5-2.1l4-14.5h2.6l3.8 14.5c0.3 1.1 0.4 2.1 0.4 2.1h0.1s0.1-1.1 0.4-2.1l3.2-12.9c0.3-1.4 1-1.7 2.4-1.7h1.6v2.5h-0.4c-0.5 0-0.8 0.1-1 0.6l-4.4 17h-3.3l-3.4-12.7c-0.3-1.3-0.6-2.8-0.6-2.8h-0.1s-0.3 1.5-0.7 2.7l-3.6 12.7h-3.3z"/>
   <path d="m322 326c4 0 6.2 3 6.2 6.8 0 0.4-0.1 1.1-0.1 1.1h-10.5c0.2 3.1 2.4 4.8 5 4.8 2.5 0 4.2-1.7 4.2-1.7l1.2 2s-2.1 2.1-5.6 2.1c-4.6 0-7.7-3.3-7.7-7.5 0-4.7 3.1-7.6 7.3-7.6zm3.3 5.9c-0.1-2.4-1.6-3.7-3.4-3.7-2.1 0-3.8 1.3-4.2 3.7z"/>
   <path d="m331.8 329.3c0-0.4-0.2-0.6-0.6-0.6h-1.2v-2.4h2.6c1.3 0 1.9 0.5 1.9 1.7v0.9c0 0.6-0.1 1-0.1 1h0.1c0.7-2.1 2.3-3.8 4.6-3.8 0.4 0 0.7 0.1 0.7 0.1v2.7s-0.4-0.1-0.8-0.1c-1.8 0-3.4 1.3-4 3.4-0.3 0.8-0.3 1.7-0.3 2.6v5.9h-2.8v-11.4z"/>
   <path d="m343 328.5h-1.9v-2.2h1.9v-4h2.7v4h3.4v2.2h-3.4v6.6c0 2.9 2 3.2 3 3.2 0.4 0 0.7-0.1 0.7-0.1v2.5s-0.4 0.1-1 0.1c-1.8 0-5.5-0.6-5.5-5.4v-6.9z"/>
   <path d="m358.5 326c4 0 6.2 3 6.2 6.8 0 0.4-0.1 1.1-0.1 1.1h-10.5c0.2 3.1 2.4 4.8 5 4.8 2.5 0 4.2-1.7 4.2-1.7l1.2 2s-2.1 2.1-5.6 2.1c-4.6 0-7.7-3.3-7.7-7.5 0-4.7 3.2-7.6 7.3-7.6zm3.3 5.9c-0.1-2.4-1.6-3.7-3.4-3.7-2.1 0-3.8 1.3-4.2 3.7z"/>
   <path d="m381.8 326c4 0 6.2 3 6.2 6.8 0 0.4-0.1 1.1-0.1 1.1h-10.5c0.2 3.1 2.4 4.8 5 4.8 2.5 0 4.2-1.7 4.2-1.7l1.2 2s-2.1 2.1-5.6 2.1c-4.6 0-7.7-3.3-7.7-7.5 0.1-4.7 3.2-7.6 7.3-7.6zm3.4 5.9c-0.1-2.4-1.6-3.7-3.4-3.7-2.1 0-3.8 1.3-4.2 3.7z"/>
   <path d="m391.7 329.3c0-0.4-0.2-0.6-0.6-0.6h-1.2v-2.4h2.6c1.3 0 1.9 0.5 1.9 1.7v0.9c0 0.6-0.1 1-0.1 1h0.1c0.7-2.1 2.3-3.8 4.6-3.8 0.4 0 0.7 0.1 0.7 0.1v2.7s-0.4-0.1-0.8-0.1c-1.8 0-3.4 1.3-4 3.4-0.3 0.8-0.3 1.7-0.3 2.6v5.9h-2.8v-11.4z"/>
   <path d="m402.4 323.6c0-0.4-0.2-0.6-0.6-0.6h-1.2v-2.4h2.7c1.3 0 1.8 0.5 1.8 1.8v5.6c0 0.7-0.1 1.2-0.1 1.2h0.1c0.6-1.4 2.5-3.2 5.4-3.2 3.4 0 4.9 1.9 4.9 5.5v6.2c0 0.4 0.2 0.6 0.6 0.6h1.2v2.4h-2.7c-1.3 0-1.8-0.5-1.8-1.8v-6.8c0-2-0.4-3.6-2.7-3.6-2.2 0-4 1.5-4.6 3.6-0.2 0.6-0.3 1.2-0.3 1.9v6.8h-2.8v-17.2z"/>
   <path d="m427.5 331.8h0.6v-0.1c0-2.5-0.9-3.4-3.2-3.4-0.7 0-2.4 0.2-2.4 1.1v0.8h-2.5v-1.4c0-2.4 3.6-2.7 5-2.7 4.7 0 5.9 2.5 5.9 5.6v6.1c0 0.4 0.2 0.6 0.6 0.6h1.2v2.4h-2.6c-1.3 0-1.8-0.6-1.8-1.7 0-0.5 0.1-0.9 0.1-0.9h-0.1s-1.1 2.8-4.6 2.8c-2.5 0-4.9-1.5-4.9-4.4 0-4.5 6.3-4.8 8.7-4.8zm-3.2 7.1c2.3 0 3.8-2.4 3.8-4.6v-0.5h-0.7c-2.1 0-5.8 0.1-5.8 2.8 0 1.1 0.9 2.3 2.7 2.3z"/>
   <path d="m435.6 323.6c0-0.4-0.2-0.6-0.6-0.6h-1.2v-2.4h2.7c1.3 0 1.8 0.5 1.8 1.8v15.3c0 0.4 0.2 0.6 0.6 0.6h1.2v2.4h-2.7c-1.3 0-1.8-0.5-1.8-1.8z"/>
   <path d="m443.4 328.5h-1.9v-2.2h1.9v-4h2.7v4h3.4v2.2h-3.4v6.6c0 2.9 2 3.2 3 3.2 0.4 0 0.7-0.1 0.7-0.1v2.5s-0.4 0.1-1 0.1c-1.8 0-5.5-0.6-5.5-5.4v-6.9z"/>
   <path d="m458.9 326c4 0 6.2 3 6.2 6.8 0 0.4-0.1 1.1-0.1 1.1h-10.5c0.2 3.1 2.4 4.8 5 4.8 2.5 0 4.2-1.7 4.2-1.7l1.2 2s-2.1 2.1-5.6 2.1c-4.6 0-7.7-3.3-7.7-7.5 0.1-4.7 3.2-7.6 7.3-7.6zm3.4 5.9c-0.1-2.4-1.6-3.7-3.4-3.7-2.1 0-3.8 1.3-4.2 3.7z"/>
   <path d="m468.8 329.3c0-0.4-0.2-0.6-0.6-0.6h-1.2v-2.4h2.6c1.2 0 1.8 0.5 1.8 1.6v0.5c0 0.5-0.1 0.8-0.1 0.8h0.1c0.6-1.3 2.3-3.3 5.4-3.3 3.4 0 5 1.9 5 5.5v6.2c0 0.4 0.2 0.6 0.6 0.6h1.2v2.4h-2.7c-1.3 0-1.8-0.5-1.8-1.8v-6.8c0-2-0.4-3.6-2.7-3.6-2.2 0-4 1.5-4.6 3.5-0.2 0.6-0.3 1.2-0.3 1.9v6.8h-2.8v-11.3z"/>
   <path d="m486.2 337.8h2.8v2.9h-2.8z"/>
  </g>
 </g>
</svg>
